<svg width="17" height="17" viewBox="0 0 17 17" fill="none" xmlns="http://www.w3.org/2000/svg">
<g id="fi-rs-shuffle 1" clip-path="url(#clip0_1584_1025)">
<g id="01 align center">
<path id="Vector" d="M14.0196 9.79517L13.0769 10.7378L14.6049 12.2665H14.3502C12.0942 12.2665 10.6596 11.2452 9.38623 9.92783L9.18623 10.1598C8.96757 10.4132 8.74224 10.6738 8.50757 10.9358C9.23236 11.7751 10.1299 12.4478 11.1388 12.9081C12.1476 13.3683 13.244 13.6052 14.3529 13.6025H14.6049L13.0762 15.1312L14.0189 16.0738L16.2142 13.8785C16.4642 13.6285 16.6046 13.2894 16.6046 12.9358C16.6046 12.5823 16.4642 12.2432 16.2142 11.9932L14.0196 9.79517Z" fill="#B6B6B6"/>
<path id="Vector_2" d="M14.3508 5.59983H14.6048L13.0768 7.1285L14.0195 8.07117L16.2148 5.87583C16.4648 5.6258 16.6052 5.28672 16.6052 4.93317C16.6052 4.57961 16.4648 4.24054 16.2148 3.9905L14.0195 1.79517L13.0768 2.73783L14.6048 4.2665H14.3501C11.0455 4.2665 9.23879 6.0465 7.59946 7.9185C5.98012 6.08983 4.03346 4.2665 0.578125 4.2665V5.59983C3.55413 5.59983 5.16012 7.15717 6.71746 8.93317C5.16012 10.7092 3.55413 12.2665 0.578125 12.2665V13.5998C4.45012 13.5998 6.42879 11.3092 8.17812 9.28917C9.81412 7.39183 11.3628 5.59983 14.3508 5.59983Z" fill="#B6B6B6"/>
</g>
</g>
<defs>
<clipPath id="clip0_1584_1025">
<rect width="16" height="16" fill="white" transform="translate(0.604736 0.933167)"/>
</clipPath>
</defs>
</svg>
